PathFileType	4	(X/Y/Z)	C:\Users\chris\Documents\GitHub\baseballds\vids\pitch3_Sports2D\pitch3_Sports2D_m_person00.trc
DataRate	CameraRate	NumFrames	NumMarkers	Units	OrigDataRate	OrigDataStartFrame	OrigNumFrames
30	30	9	22	m	30	180	240
Frame#	Time	Hip			RHip			RKnee			RAnkle			RBigToe			RSmallToe			RHeel			LHip			LKnee			LAnkle			LBigToe			LSmallToe			LHeel			Neck			Head			Nose			RShoulder			RElbow			RWrist			LShoulder			LElbow			LWrist		
		X1	Y1	Z1	X2	Y2	Z2	X3	Y3	Z3	X4	Y4	Z4	X5	Y5	Z5	X6	Y6	Z6	X7	Y7	Z7	X8	Y8	Z8	X9	Y9	Z9	X10	Y10	Z10	X11	Y11	Z11	X12	Y12	Z12	X13	Y13	Z13	X14	Y14	Z14	X15	Y15	Z15	X16	Y16	Z16	X17	Y17	Z17	X18	Y18	Z18	X19	Y19	Z19	X20	Y20	Z20	X21	Y21	Z21	X22	Y22	Z22
180	6.0	0.6468305723339809	0.8648286405253498	0.0	0.5886601248256419	0.8138658861542721	0.0	0.593336033922039	0.35848004595882443	0.0	0.4716440476377014	-0.02444742064879054	0.0	0.6624901866854205	-0.11296160463524603	0.0	0.6297722450711276	-0.12902061018781802	0.0	0.4252289706916327	-0.08203184540995252	0.0	0.7319387431618185	0.8592587308340137	0.0	0.9965117170982214	1.0428710152971017	0.0	1.1113657302125897	0.629118630310957	0.0	1.3317331820524014	0.6575205315601413	0.0	1.3166655609750773	0.642673346496011	0.0	1.0926556078155638	0.523323209519952	0.0	0.6336751220909499	1.3992927136718127	0.0	0.7399277411388803	1.633824347826499	0.0	0.8156858111882511	1.4681706561496641	0.0	0.4858537238839137	1.3335990629771624	0.0	0.6668536796276658	1.1335842860819751	0.0	0.808538734010951	1.3462296529866995	0.0	0.7265838037434156	1.2973256455465931	0.0	0.9051152925220024	1.084147882224214	0.0	0.9830653916380344	1.2665091175660559	0.0
181	6.033333333333333	0.6522855916006012	0.8694744375444061	0.0	0.5987190446768896	0.8149684467608568	0.0	0.5996061620096279	0.3670290516654864	0.0	0.47241840339892327	-0.018429640924907304	0.0	0.6635659055956907	-0.10913298541311545	0.0	0.6306048336288588	-0.1278363608276766	0.0	0.42455089562812526	-0.0773112055818479	0.0	0.7387826383224011	0.8688898458593117	0.0	0.9650808274199578	1.100145373260463	0.0	1.087210925068676	0.7087153237353379	0.0	1.2965589398506303	0.7397135560072422	0.0	1.2806653916930075	0.7223368863505852	0.0	1.0781898007352257	0.598393492874607	0.0	0.62660140161111	1.3995320949139909	0.0	0.7395303059807611	1.6280934969233705	0.0	0.8108759432104228	1.4614318106993303	0.0	0.48412973616298194	1.3301170678684127	0.0	0.6725607171159541	1.1459664268159386	0.0	0.8098399173846522	1.367865642170434	0.0	0.7210617385225062	1.3053846036706862	0.0	0.9067993726468171	1.1162997211895664	0.0	0.969373251642361	1.2980440709709018	0.0
182	6.066666666666666	0.6615563558874767	0.8725488427403878	0.0	0.6103653499132503	0.817373598337615	0.0	0.6061903280696527	0.3748820784190982	0.0	0.4719436176424981	-0.012396482802115277	0.0	0.6633520572480639	-0.10854560440430361	0.0	0.631060245344181	-0.1288950526446666	0.0	0.4254423236109534	-0.07187603423196919	0.0	0.7491184170967344	0.8767778288588892	0.0	0.9395788126589301	1.1442167875760716	0.0	1.0512864177516936	0.7589612893381875	0.0	1.2471154255850996	0.787623317532941	0.0	1.2344393107300216	0.763451518388112	0.0	1.0445430417302644	0.6443965732048429	0.0	0.620352627355143	1.3965548645687156	0.0	0.7373842058348888	1.6239582544698636	0.0	0.8048632397817316	1.4578981612686164	0.0	0.4846543959299722	1.3219486344271991	0.0	0.6746301180954034	1.1505938173254382	0.0	0.8073237101194666	1.3820246702845131	0.0	0.7176108224566898	1.308976170964177	0.0	0.8915809614440042	1.1375588688043032	0.0	0.9458366556319617	1.318447671550711	0.0
183	6.1	0.6716196589129498	0.8747902330044977	0.0	0.6196575468509175	0.8196236739946392	0.0	0.6107696956505265	0.3784925990575907	0.0	0.47049509108111853	-0.008472415495300128	0.0	0.659756111392312	-0.10981442582105407	0.0	0.6269352390810495	-0.12967066440525737	0.0	0.4257668830928037	-0.06854711199129424	0.0	0.7571485596643918	0.8810520099587147	0.0	0.9227369591933959	1.172105636719147	0.0	1.011806222363369	0.7792688723060225	0.0	1.1955828802086674	0.8022138274487626	0.0	1.1882071487536814	0.772213584934318	0.0	1.0003998219450032	0.6622145124817964	0.0	0.6192941514802751	1.3907183146353168	0.0	0.7329309331009738	1.6228313626666486	0.0	0.8011382475783957	1.4592557420359318	0.0	0.4859887750897239	1.3133508014603394	0.0	0.6766923105725894	1.1520681932566386	0.0	0.8004786533316909	1.3855269184155776	0.0	0.7220148975614573	1.3060102475295363	0.0	0.8751000679237243	1.1448620779165133	0.0	0.9274164728098836	1.323812375321663	0.0
184	6.133333333333333	0.6741654567827051	0.8765684698393271	0.0	0.6201476624223903	0.8215671505458205	0.0	0.6136302279918143	0.37861659289432087	0.0	0.46854356223427857	-0.006319007037100574	0.0	0.6538268875193567	-0.10984571537349626	0.0	0.6172717906763675	-0.12934633738964052	0.0	0.42391920635293706	-0.06636624101443164	0.0	0.7551676163124789	0.8824555487171426	0.0	0.9177348052383089	1.1732980669109259	0.0	0.9764769153114135	0.7724386150704868	0.0	1.1549322824229595	0.7857616988969467	0.0	1.1511166414839418	0.7584029201547358	0.0	0.9571239441921109	0.6580416137447995	0.0	0.6203312682910702	1.3835559219562752	0.0	0.7289832220825716	1.6216992340315106	0.0	0.7993280795216522	1.4609852387194062	0.0	0.48608774508700375	1.308142870040871	0.0	0.6806599826257688	1.1521494715328393	0.0	0.795513535602973	1.3813272827351055	0.0	0.7287293583948488	1.2992689079370052	0.0	0.8746587110172803	1.1455839631486902	0.0	0.928849254998057	1.3172070868668635	0.0
185	6.166666666666667	0.6674389931763515	0.8760914878903778	0.0	0.611434315475918	0.8219497425203943	0.0	0.6163797538694709	0.37645516983037847	0.0	0.46595100137661327	-0.005149621327119113	0.0	0.6486385601811882	-0.1080679839750874	0.0	0.6061320685198343	-0.12783831125837095	0.0	0.42047915350721504	-0.06319843335213095	0.0	0.745467449151845	0.8807192870173858	0.0	0.9272721634319989	1.1451499893747836	0.0	0.950341177296731	0.739263101403571	0.0	1.130232016496123	0.7388385952978458	0.0	1.1274174042178624	0.7246852114292305	0.0	0.922456962058968	0.6346600780034467	0.0	0.6187682122059927	1.376604358013731	0.0	0.7275243697299482	1.6171158786368998	0.0	0.7977069860677187	1.4590015322234906	0.0	0.4845094483027792	1.3053448363869202	0.0	0.6834551220794055	1.147354224864846	0.0	0.7955746079442939	1.373051898226268	0.0	0.7306340921060089	1.2917904045749333	0.0	0.8890710019383911	1.1447133800957199	0.0	0.9435446663759232	1.306612901829024	0.0
186	6.2	0.6571316583108746	0.8720212604483152	0.0	0.5990918400190006	0.8180038965720577	0.0	0.6200716643542599	0.3726308735386386	0.0	0.46383459216541434	-0.004991724708987075	0.0	0.6463234743487875	-0.10633497003804238	0.0	0.5998403027866253	-0.12499472611247525	0.0	0.41666641339622823	-0.05913534115923411	0.0	0.7367913212678151	0.8742207816447988	0.0	0.9469506033953252	1.0939067328993926	0.0	0.9338801844578993	0.6807000851922365	0.0	1.1144646165510486	0.6621862740293096	0.0	1.112103753268913	0.6654614006280747	0.0	0.8990252699496445	0.5900503576076389	0.0	0.6161606745553507	1.3703608055290077	0.0	0.7266579367194534	1.6100113749107856	0.0	0.7955557409681617	1.4552232519339694	0.0	0.4822656255600613	1.3005417369256789	0.0	0.6809327317607746	1.1336143401377456	0.0	0.7956808306052627	1.3564828245122642	0.0	0.7292453870263526	1.2852497548482884	0.0	0.9020484241246717	1.1390735753599432	0.0	0.947717660592294	1.2979377614394347	0.0
187	6.233333333333333	0.6482619609947134	0.8657555519538064	0.0	0.5881517989492241	0.8105827413838289	0.0	0.6248816540869417	0.3694240315207924	0.0	0.46352496148557704	-0.00584469381710038	0.0	0.6452418754768509	-0.10646562312615693	0.0	0.5991784103551212	-0.12246123318422955	0.0	0.4130665868707885	-0.05596522991810578	0.0	0.7320379988219007	0.8645781844821037	0.0	0.9657629958311154	1.023441833662586	0.0	0.9228279477330371	0.6012964650471777	0.0	1.0980516785779644	0.5605080238540903	0.0	1.0964279526655771	0.5756836650440672	0.0	0.8837821633209042	0.523765465461858	0.0	0.6165994135605709	1.3646933289537164	0.0	0.7252894222263939	1.6028379969683695	0.0	0.7938694950881588	1.4499446654651753	0.0	0.4810558176608593	1.291605345415667	0.0	0.6703626459706257	1.1094680339843273	0.0	0.7892904126776615	1.3236580246184375	0.0	0.7258301544430815	1.2808642176906486	0.0	0.8955539029414294	1.1244346842107977	0.0	0.9245295892972144	1.2893660943234786	0.0
188	6.266666666666667	0.6435089292754655	0.8592840067985207	0.0	0.5805809044808483	0.8041262002263719	0.0	0.6311846440523476	0.3682004770990205	0.0	0.4637967074698284	-0.007820221476361064	0.0	0.642007400419964	-0.10816785845940202	0.0	0.5982183845737337	-0.1222620992905126	0.0	0.4094982551718857	-0.05596074138359145	0.0	0.7288005839475774	0.8558643785085761	0.0	0.974652486992319	0.9346843865814797	0.0	0.9129796006929862	0.5095404970863433	0.0	1.0787888711381908	0.4456573487346111	0.0	1.0760481920581817	0.46380583498907435	0.0	0.8712999902959968	0.4414571432361691	0.0	0.6210502341940367	1.3593243957905636	0.0	0.7263162115228928	1.5945260412352704	0.0	0.7957243134659973	1.4380894016072416	0.0	0.4818182001814035	1.2798741460585985	0.0	0.6487743476304043	1.0751290756435392	0.0	0.7772524212894077	1.2725314484340466	0.0	0.7188925544973146	1.2778660654885696	0.0	0.8620868498686608	1.0997869916676404	0.0	0.8829606153642192	1.2695845200246836	0.0
